<svg xmlns="http://www.w3.org/2000/svg" width="110" height="110" viewBox="0 0 110 110" fill="none">
  <path d="M 7.424 0.161 C 4.001 0.798 1.285 3.285 0.3 6.682 C 0.058 7.518 0.054 7.625 0.054 13.276 C 0.054 18.942 0.058 19.031 0.303 19.877 C 1.164 22.852 3.272 25.076 6.163 26.059 C 7.535 26.526 8.257 26.57 13.818 26.526 C 19.665 26.479 19.591 26.488 21.404 25.637 C 23.736 24.543 25.508 22.436 26.249 19.877 C 26.494 19.031 26.498 18.942 26.498 13.276 C 26.498 7.61 26.494 7.52 26.249 6.674 C 25.999 5.811 25.433 4.577 25.006 3.962 C 23.576 1.905 21.338 0.504 18.857 0.113 C 17.787 -0.056 8.376 -0.017 7.424 0.161 Z M 30.345 3.793 L 30.345 7.586 L 32.241 7.586 L 34.138 7.586 L 34.138 9.483 L 34.138 11.379 L 32.241 11.379 L 30.345 11.379 L 30.345 13.276 L 30.345 15.172 L 34.138 15.172 L 37.931 15.172 L 37.931 17.069 L 37.931 18.966 L 36.034 18.966 L 34.138 18.966 L 34.138 20.862 L 34.138 22.759 L 32.241 22.759 L 30.345 22.759 L 30.345 26.552 L 30.345 30.345 L 24.655 30.345 L 18.966 30.345 L 18.966 32.241 L 18.966 34.138 L 22.759 34.138 L 26.552 34.138 L 26.552 36.034 L 26.552 37.931 L 22.759 37.931 L 18.966 37.931 L 18.966 39.828 L 18.966 41.724 L 15.172 41.724 L 11.379 41.724 L 11.379 43.621 L 11.379 45.517 L 13.276 45.517 L 15.172 45.517 L 15.172 47.414 L 15.172 49.31 L 17.069 49.31 L 18.966 49.31 L 18.966 47.414 L 18.966 45.517 L 20.862 45.517 L 22.759 45.517 L 22.759 47.414 L 22.759 49.31 L 24.655 49.31 L 26.552 49.31 L 26.552 47.414 L 26.552 45.517 L 28.448 45.517 L 30.345 45.517 L 30.345 49.31 L 30.345 53.103 L 32.241 53.103 L 34.138 53.103 L 34.138 55 L 34.138 56.897 L 37.931 56.897 L 41.724 56.897 L 41.724 55 L 41.724 53.103 L 43.621 53.103 L 45.517 53.103 L 45.517 55 L 45.517 56.897 L 49.31 56.897 L 53.103 56.897 L 53.103 62.586 L 53.103 68.276 L 47.414 68.276 L 41.724 68.276 L 41.724 66.379 L 41.724 64.483 L 45.517 64.483 L 49.31 64.483 L 49.31 62.586 L 49.31 60.69 L 45.517 60.69 L 41.724 60.69 L 41.724 62.586 L 41.724 64.483 L 39.828 64.483 L 37.931 64.483 L 37.931 68.276 L 37.931 72.069 L 36.034 72.069 L 34.138 72.069 L 34.138 68.276 L 34.138 64.483 L 32.241 64.483 L 30.345 64.483 L 30.345 62.586 L 30.345 60.69 L 24.655 60.69 L 18.966 60.69 L 18.966 56.897 L 18.966 53.103 L 15.172 53.103 L 11.379 53.103 L 11.379 51.207 L 11.379 49.31 L 9.483 49.31 L 7.586 49.31 L 7.586 51.207 L 7.586 53.103 L 9.483 53.103 L 11.379 53.103 L 11.379 55 L 11.379 56.897 L 9.483 56.897 L 7.586 56.897 L 7.586 58.793 L 7.586 60.69 L 9.483 60.69 L 11.379 60.69 L 11.379 62.586 L 11.379 64.483 L 13.276 64.483 L 15.172 64.483 L 15.172 66.379 L 15.172 68.276 L 18.966 68.276 L 22.759 68.276 L 22.759 70.172 L 22.759 72.069 L 20.862 72.069 L 18.966 72.069 L 18.966 73.966 L 18.966 75.862 L 17.069 75.862 L 15.172 75.862 L 15.172 73.966 L 15.172 72.069 L 11.379 72.069 L 7.586 72.069 L 7.586 73.966 L 7.586 75.862 L 5.69 75.862 L 3.793 75.862 L 3.793 77.759 L 3.793 79.655 L 11.379 79.655 L 18.966 79.655 L 18.966 77.759 L 18.966 75.862 L 20.862 75.862 L 22.759 75.862 L 22.759 77.759 L 22.759 79.655 L 24.655 79.655 L 26.552 79.655 L 26.552 77.759 L 26.552 75.862 L 24.655 75.862 L 22.759 75.862 L 22.759 73.966 L 22.759 72.069 L 26.552 72.069 L 30.345 72.069 L 30.345 81.552 L 30.345 91.034 L 32.241 91.034 L 34.138 91.034 L 34.138 92.931 L 34.138 94.828 L 32.241 94.828 L 30.345 94.828 L 30.345 98.621 L 30.345 102.414 L 32.241 102.414 L 34.138 102.414 L 34.138 104.31 L 34.138 106.207 L 32.241 106.207 L 30.345 106.207 L 30.345 108.103 L 30.345 110 L 32.241 110 L 34.138 110 L 34.138 108.103 L 34.138 106.207 L 36.034 106.207 L 37.931 106.207 L 37.931 108.103 L 37.931 110 L 39.828 110 L 41.724 110 L 41.724 108.103 L 41.724 106.207 L 43.621 106.207 L 45.517 106.207 L 45.517 104.31 L 45.517 102.414 L 47.414 102.414 L 49.31 102.414 L 49.31 104.31 L 49.31 106.207 L 51.207 106.207 L 53.103 106.207 L 53.103 104.31 L 53.103 102.414 L 55 102.414 L 56.897 102.414 L 56.897 104.31 L 56.897 106.207 L 58.793 106.207 L 60.69 106.207 L 60.69 104.31 L 60.69 102.414 L 58.793 102.414 L 56.897 102.414 L 56.897 100.517 L 56.897 98.621 L 55 98.621 L 53.103 98.621 L 53.103 96.724 L 53.103 94.828 L 51.207 94.828 L 49.31 94.828 L 49.31 92.931 L 49.31 91.034 L 55 91.034 L 60.69 91.034 L 60.69 92.931 L 60.69 94.828 L 62.586 94.828 L 64.483 94.828 L 64.483 92.931 L 64.483 91.034 L 62.586 91.034 L 60.69 91.034 L 60.69 87.241 L 60.69 83.448 L 62.586 83.448 L 64.483 83.448 L 64.483 85.345 L 64.483 87.241 L 70.172 87.241 L 75.862 87.241 L 75.862 91.034 L 75.862 94.828 L 73.966 94.828 L 72.069 94.828 L 72.069 92.931 L 72.069 91.034 L 70.172 91.034 L 68.276 91.034 L 68.276 92.931 L 68.276 94.828 L 70.172 94.828 L 72.069 94.828 L 72.069 96.724 L 72.069 98.621 L 68.276 98.621 L 64.483 98.621 L 64.483 104.31 L 64.483 110 L 73.966 110 L 83.448 110 L 83.448 106.207 L 83.448 102.414 L 79.655 102.414 L 75.862 102.414 L 75.862 104.31 L 75.862 106.207 L 73.966 106.207 L 72.069 106.207 L 72.069 102.414 L 72.069 98.621 L 73.966 98.621 L 75.862 98.621 L 75.862 96.724 L 75.862 94.828 L 77.759 94.828 L 79.655 94.828 L 79.655 96.724 L 79.655 98.621 L 81.552 98.621 L 83.448 98.621 L 83.448 96.724 L 83.448 94.828 L 85.345 94.828 L 87.241 94.828 L 87.241 102.414 L 87.241 110 L 91.034 110 L 94.828 110 L 94.828 108.103 L 94.828 106.207 L 96.724 106.207 L 98.621 106.207 L 98.621 104.31 L 98.621 102.414 L 100.517 102.414 L 102.414 102.414 L 102.414 106.207 L 102.414 110 L 104.31 110 L 106.207 110 L 106.207 106.207 L 106.207 102.414 L 108.103 102.414 L 110 102.414 L 110 100.517 L 110 98.621 L 108.103 98.621 L 106.207 98.621 L 106.207 96.724 L 106.207 94.828 L 108.103 94.828 L 110 94.828 L 110 91.034 L 110 87.241 L 108.103 87.241 L 106.207 87.241 L 106.207 85.345 L 106.207 83.448 L 108.103 83.448 L 110 83.448 L 110 81.552 L 110 79.655 L 106.207 79.655 L 102.414 79.655 L 102.414 73.966 L 102.414 68.276 L 104.31 68.276 L 106.207 68.276 L 106.207 62.586 L 106.207 56.897 L 108.103 56.897 L 110 56.897 L 110 53.103 L 110 49.31 L 106.207 49.31 L 102.414 49.31 L 102.414 47.414 L 102.414 45.517 L 98.621 45.517 L 94.828 45.517 L 94.828 43.621 L 94.828 41.724 L 92.931 41.724 L 91.034 41.724 L 91.034 39.828 L 91.034 37.931 L 92.931 37.931 L 94.828 37.931 L 94.828 36.034 L 94.828 34.138 L 96.724 34.138 L 98.621 34.138 L 98.621 32.241 L 98.621 30.345 L 96.724 30.345 L 94.828 30.345 L 94.828 32.241 L 94.828 34.138 L 91.034 34.138 L 87.241 34.138 L 87.241 32.241 L 87.241 30.345 L 85.345 30.345 L 83.448 30.345 L 83.448 32.241 L 83.448 34.138 L 77.759 34.138 L 72.069 34.138 L 72.069 28.448 L 72.069 22.759 L 73.966 22.759 L 75.862 22.759 L 75.862 26.552 L 75.862 30.345 L 77.759 30.345 L 79.655 30.345 L 79.655 24.655 L 79.655 18.966 L 77.759 18.966 L 75.862 18.966 L 75.862 15.172 L 75.862 11.379 L 77.759 11.379 L 79.655 11.379 L 79.655 5.69 L 79.655 0 L 72.069 0 L 64.483 0 L 64.483 1.897 L 64.483 3.793 L 62.586 3.793 L 60.69 3.793 L 60.69 1.897 L 60.69 0 L 55 0 L 49.31 0 L 49.31 3.793 L 49.31 7.586 L 51.207 7.586 L 53.103 7.586 L 53.103 5.69 L 53.103 3.793 L 56.897 3.793 L 60.69 3.793 L 60.69 7.586 L 60.69 11.379 L 56.897 11.379 L 53.103 11.379 L 53.103 15.172 L 53.103 18.966 L 49.31 18.966 L 45.517 18.966 L 45.517 22.759 L 45.517 26.552 L 47.414 26.552 L 49.31 26.552 L 49.31 24.655 L 49.31 22.759 L 51.207 22.759 L 53.103 22.759 L 53.103 24.655 L 53.103 26.552 L 55 26.552 L 56.897 26.552 L 56.897 30.345 L 56.897 34.138 L 55 34.138 L 53.103 34.138 L 53.103 32.241 L 53.103 30.345 L 51.207 30.345 L 49.31 30.345 L 49.31 32.241 L 49.31 34.138 L 47.414 34.138 L 45.517 34.138 L 45.517 32.241 L 45.517 30.345 L 43.621 30.345 L 41.724 30.345 L 41.724 17.069 L 41.724 3.793 L 39.828 3.793 L 37.931 3.793 L 37.931 1.897 L 37.931 0 L 34.138 0 L 30.345 0 L 30.345 3.793 Z M 90.872 0.161 C 87.449 0.798 84.733 3.285 83.749 6.682 C 83.506 7.518 83.502 7.625 83.502 13.276 C 83.502 18.942 83.506 19.031 83.751 19.877 C 84.612 22.852 86.721 25.076 89.612 26.059 C 90.983 26.526 91.705 26.57 97.266 26.526 C 103.113 26.479 103.04 26.488 104.852 25.637 C 107.184 24.543 108.956 22.436 109.697 19.877 C 109.942 19.031 109.946 18.942 109.946 13.276 C 109.946 7.61 109.942 7.52 109.697 6.674 C 109.447 5.811 108.882 4.577 108.454 3.962 C 107.024 1.905 104.786 0.504 102.305 0.113 C 101.235 -0.056 91.825 -0.017 90.872 0.161 Z M 37.931 5.69 L 37.931 7.586 L 36.034 7.586 L 34.138 7.586 L 34.138 5.69 L 34.138 3.793 L 36.034 3.793 L 37.931 3.793 L 37.931 5.69 Z M 75.862 7.586 L 75.862 11.379 L 73.966 11.379 L 72.069 11.379 L 72.069 9.483 L 72.069 7.586 L 70.172 7.586 L 68.276 7.586 L 68.276 9.483 L 68.276 11.379 L 66.379 11.379 L 64.483 11.379 L 64.483 13.276 L 64.483 15.172 L 68.276 15.172 L 72.069 15.172 L 72.069 17.069 L 72.069 18.966 L 68.276 18.966 L 64.483 18.966 L 64.483 17.069 L 64.483 15.172 L 62.586 15.172 L 60.69 15.172 L 60.69 17.069 L 60.69 18.966 L 58.793 18.966 L 56.897 18.966 L 56.897 20.862 L 56.897 22.759 L 58.793 22.759 L 60.69 22.759 L 60.69 24.655 L 60.69 26.552 L 58.793 26.552 L 56.897 26.552 L 56.897 24.655 L 56.897 22.759 L 55 22.759 L 53.103 22.759 L 53.103 20.862 L 53.103 18.966 L 55 18.966 L 56.897 18.966 L 56.897 17.069 L 56.897 15.172 L 58.793 15.172 L 60.69 15.172 L 60.69 13.276 L 60.69 11.379 L 62.586 11.379 L 64.483 11.379 L 64.483 7.586 L 64.483 3.793 L 70.172 3.793 L 75.862 3.793 L 75.862 7.586 Z M 18.799 4.176 C 20.265 4.558 21.423 5.519 22.083 6.901 L 22.488 7.749 L 22.523 12.897 C 22.548 16.559 22.521 18.216 22.43 18.64 C 22.051 20.409 20.595 21.908 18.799 22.376 C 17.857 22.621 8.694 22.621 7.753 22.376 C 6.316 22.002 5.168 21.047 4.48 19.655 L 4.064 18.814 L 4.064 13.281 L 4.064 7.749 L 4.42 6.996 C 5.075 5.613 6.038 4.746 7.453 4.264 C 8.171 4.019 8.258 4.015 13.172 4.013 C 17.312 4.01 18.27 4.038 18.799 4.176 Z M 102.247 4.176 C 103.713 4.558 104.871 5.519 105.531 6.901 L 105.936 7.749 L 105.971 12.897 C 105.996 16.559 105.969 18.216 105.879 18.64 C 105.5 20.409 104.043 21.908 102.247 22.376 C 101.306 22.621 92.143 22.621 91.201 22.376 C 89.764 22.002 88.616 21.047 87.928 19.655 L 87.512 18.814 L 87.512 13.281 L 87.512 7.749 L 87.869 6.996 C 88.523 5.613 89.486 4.746 90.901 4.264 C 91.619 4.019 91.706 4.015 96.62 4.013 C 100.76 4.01 101.718 4.038 102.247 4.176 Z M 9.722 7.74 C 8.723 8.103 7.947 8.924 7.686 9.894 C 7.617 10.149 7.587 11.55 7.607 13.526 L 7.64 16.744 L 7.962 17.324 C 8.352 18.029 8.861 18.466 9.622 18.751 C 10.144 18.946 10.471 18.966 13.276 18.966 C 16.081 18.966 16.408 18.946 16.929 18.751 C 17.691 18.466 18.2 18.029 18.59 17.324 L 18.911 16.744 L 18.911 13.276 C 18.911 9.909 18.904 9.795 18.673 9.362 C 18.306 8.676 17.953 8.31 17.322 7.961 L 16.744 7.64 L 13.438 7.615 C 10.846 7.595 10.044 7.622 9.722 7.74 Z M 93.17 7.74 C 92.171 8.103 91.395 8.924 91.134 9.894 C 91.066 10.149 91.035 11.55 91.056 13.526 L 91.089 16.744 L 91.41 17.324 C 91.8 18.029 92.309 18.466 93.071 18.751 C 93.592 18.946 93.919 18.966 96.724 18.966 C 99.529 18.966 99.856 18.946 100.378 18.751 C 101.139 18.466 101.648 18.029 102.038 17.324 L 102.36 16.744 L 102.36 13.276 C 102.36 9.909 102.353 9.795 102.121 9.362 C 101.754 8.676 101.401 8.31 100.77 7.961 L 100.192 7.64 L 96.887 7.615 C 94.294 7.595 93.493 7.622 93.17 7.74 Z M 45.517 13.276 L 45.517 15.172 L 47.414 15.172 L 49.31 15.172 L 49.31 13.276 L 49.31 11.379 L 47.414 11.379 L 45.517 11.379 L 45.517 13.276 Z M 37.931 24.655 L 37.931 26.552 L 36.034 26.552 L 34.138 26.552 L 34.138 24.655 L 34.138 22.759 L 36.034 22.759 L 37.931 22.759 L 37.931 24.655 Z M 68.276 24.655 L 68.276 26.552 L 66.379 26.552 L 64.483 26.552 L 64.483 24.655 L 64.483 22.759 L 66.379 22.759 L 68.276 22.759 L 68.276 24.655 Z M 0 36.034 L 0 41.724 L 1.897 41.724 L 3.793 41.724 L 3.793 43.621 L 3.793 45.517 L 5.69 45.517 L 7.586 45.517 L 7.586 41.724 L 7.586 37.931 L 11.379 37.931 L 15.172 37.931 L 15.172 34.138 L 15.172 30.345 L 11.379 30.345 L 7.586 30.345 L 7.586 32.241 L 7.586 34.138 L 5.69 34.138 L 3.793 34.138 L 3.793 32.241 L 3.793 30.345 L 1.897 30.345 L 0 30.345 L 0 36.034 Z M 34.138 32.241 L 34.138 34.138 L 36.034 34.138 L 37.931 34.138 L 37.931 32.241 L 37.931 30.345 L 39.828 30.345 L 41.724 30.345 L 41.724 32.241 L 41.724 34.138 L 43.621 34.138 L 45.517 34.138 L 45.517 36.034 L 45.517 37.931 L 47.414 37.931 L 49.31 37.931 L 49.31 39.828 L 49.31 41.724 L 51.207 41.724 L 53.103 41.724 L 53.103 39.828 L 53.103 37.931 L 56.897 37.931 L 60.69 37.931 L 60.69 34.138 L 60.69 30.345 L 64.483 30.345 L 68.276 30.345 L 68.276 34.138 L 68.276 37.931 L 72.069 37.931 L 75.862 37.931 L 75.862 39.828 L 75.862 41.724 L 72.069 41.724 L 68.276 41.724 L 68.276 43.621 L 68.276 45.517 L 70.172 45.517 L 72.069 45.517 L 72.069 47.414 L 72.069 49.31 L 70.172 49.31 L 68.276 49.31 L 68.276 51.207 L 68.276 53.103 L 70.172 53.103 L 72.069 53.103 L 72.069 55 L 72.069 56.897 L 70.172 56.897 L 68.276 56.897 L 68.276 58.793 L 68.276 60.69 L 70.172 60.69 L 72.069 60.69 L 72.069 62.586 L 72.069 64.483 L 75.862 64.483 L 79.655 64.483 L 79.655 66.379 L 79.655 68.276 L 77.759 68.276 L 75.862 68.276 L 75.862 70.172 L 75.862 72.069 L 79.655 72.069 L 83.448 72.069 L 83.448 66.379 L 83.448 60.69 L 85.345 60.69 L 87.241 60.69 L 87.241 68.276 L 87.241 75.862 L 79.655 75.862 L 72.069 75.862 L 72.069 70.172 L 72.069 64.483 L 68.276 64.483 L 64.483 64.483 L 64.483 60.69 L 64.483 56.897 L 66.379 56.897 L 68.276 56.897 L 68.276 55 L 68.276 53.103 L 66.379 53.103 L 64.483 53.103 L 64.483 51.207 L 64.483 49.31 L 62.586 49.31 L 60.69 49.31 L 60.69 51.207 L 60.69 53.103 L 58.793 53.103 L 56.897 53.103 L 56.897 55 L 56.897 56.897 L 58.793 56.897 L 60.69 56.897 L 60.69 58.793 L 60.69 60.69 L 58.793 60.69 L 56.897 60.69 L 56.897 58.793 L 56.897 56.897 L 55 56.897 L 53.103 56.897 L 53.103 55 L 53.103 53.103 L 49.31 53.103 L 45.517 53.103 L 45.517 51.207 L 45.517 49.31 L 43.621 49.31 L 41.724 49.31 L 41.724 51.207 L 41.724 53.103 L 37.931 53.103 L 34.138 53.103 L 34.138 51.207 L 34.138 49.31 L 36.034 49.31 L 37.931 49.31 L 37.931 45.517 L 37.931 41.724 L 41.724 41.724 L 45.517 41.724 L 45.517 39.828 L 45.517 37.931 L 43.621 37.931 L 41.724 37.931 L 41.724 36.034 L 41.724 34.138 L 39.828 34.138 L 37.931 34.138 L 37.931 36.034 L 37.931 37.931 L 34.138 37.931 L 30.345 37.931 L 30.345 39.828 L 30.345 41.724 L 32.241 41.724 L 34.138 41.724 L 34.138 43.621 L 34.138 45.517 L 32.241 45.517 L 30.345 45.517 L 30.345 43.621 L 30.345 41.724 L 28.448 41.724 L 26.552 41.724 L 26.552 43.621 L 26.552 45.517 L 24.655 45.517 L 22.759 45.517 L 22.759 43.621 L 22.759 41.724 L 24.655 41.724 L 26.552 41.724 L 26.552 39.828 L 26.552 37.931 L 28.448 37.931 L 30.345 37.931 L 30.345 34.138 L 30.345 30.345 L 32.241 30.345 L 34.138 30.345 L 34.138 32.241 Z M 102.414 32.241 L 102.414 34.138 L 104.31 34.138 L 106.207 34.138 L 106.207 36.034 L 106.207 37.931 L 102.414 37.931 L 98.621 37.931 L 98.621 39.828 L 98.621 41.724 L 102.414 41.724 L 106.207 41.724 L 106.207 43.621 L 106.207 45.517 L 108.103 45.517 L 110 45.517 L 110 43.621 L 110 41.724 L 108.103 41.724 L 106.207 41.724 L 106.207 39.828 L 106.207 37.931 L 108.103 37.931 L 110 37.931 L 110 34.138 L 110 30.345 L 106.207 30.345 L 102.414 30.345 L 102.414 32.241 Z M 60.69 41.724 L 60.69 45.517 L 56.897 45.517 L 53.103 45.517 L 53.103 49.31 L 53.103 53.103 L 55 53.103 L 56.897 53.103 L 56.897 51.207 L 56.897 49.31 L 58.793 49.31 L 60.69 49.31 L 60.69 47.414 L 60.69 45.517 L 62.586 45.517 L 64.483 45.517 L 64.483 47.414 L 64.483 49.31 L 66.379 49.31 L 68.276 49.31 L 68.276 47.414 L 68.276 45.517 L 66.379 45.517 L 64.483 45.517 L 64.483 41.724 L 64.483 37.931 L 62.586 37.931 L 60.69 37.931 L 60.69 41.724 Z M 45.517 45.517 L 45.517 49.31 L 47.414 49.31 L 49.31 49.31 L 49.31 45.517 L 49.31 41.724 L 47.414 41.724 L 45.517 41.724 L 45.517 45.517 Z M 83.448 43.621 L 83.448 45.517 L 89.138 45.517 L 94.828 45.517 L 94.828 47.414 L 94.828 49.31 L 96.724 49.31 L 98.621 49.31 L 98.621 53.103 L 98.621 56.897 L 100.517 56.897 L 102.414 56.897 L 102.414 60.69 L 102.414 64.483 L 100.517 64.483 L 98.621 64.483 L 98.621 62.586 L 98.621 60.69 L 96.724 60.69 L 94.828 60.69 L 94.828 58.793 L 94.828 56.897 L 92.931 56.897 L 91.034 56.897 L 91.034 55 L 91.034 53.103 L 89.138 53.103 L 87.241 53.103 L 87.241 55 L 87.241 56.897 L 85.345 56.897 L 83.448 56.897 L 83.448 55 L 83.448 53.103 L 81.552 53.103 L 79.655 53.103 L 79.655 55 L 79.655 56.897 L 77.759 56.897 L 75.862 56.897 L 75.862 51.207 L 75.862 45.517 L 77.759 45.517 L 79.655 45.517 L 79.655 43.621 L 79.655 41.724 L 81.552 41.724 L 83.448 41.724 L 83.448 43.621 Z M 79.655 47.414 L 79.655 49.31 L 81.552 49.31 L 83.448 49.31 L 83.448 51.207 L 83.448 53.103 L 85.345 53.103 L 87.241 53.103 L 87.241 51.207 L 87.241 49.31 L 85.345 49.31 L 83.448 49.31 L 83.448 47.414 L 83.448 45.517 L 81.552 45.517 L 79.655 45.517 L 79.655 47.414 Z M 22.759 55 L 22.759 56.897 L 24.655 56.897 L 26.552 56.897 L 26.552 55 L 26.552 53.103 L 24.655 53.103 L 22.759 53.103 L 22.759 55 Z M 15.172 58.793 L 15.172 60.69 L 13.276 60.69 L 11.379 60.69 L 11.379 58.793 L 11.379 56.897 L 13.276 56.897 L 15.172 56.897 L 15.172 58.793 Z M 3.793 66.379 L 3.793 68.276 L 1.897 68.276 L 0 68.276 L 0 70.172 L 0 72.069 L 1.897 72.069 L 3.793 72.069 L 3.793 70.172 L 3.793 68.276 L 5.69 68.276 L 7.586 68.276 L 7.586 66.379 L 7.586 64.483 L 5.69 64.483 L 3.793 64.483 L 3.793 66.379 Z M 26.552 66.379 L 26.552 68.276 L 24.655 68.276 L 22.759 68.276 L 22.759 66.379 L 22.759 64.483 L 24.655 64.483 L 26.552 64.483 L 26.552 66.379 Z M 60.69 66.379 L 60.69 68.276 L 58.793 68.276 L 56.897 68.276 L 56.897 66.379 L 56.897 64.483 L 58.793 64.483 L 60.69 64.483 L 60.69 66.379 Z M 94.828 66.379 L 94.828 68.276 L 96.724 68.276 L 98.621 68.276 L 98.621 72.069 L 98.621 75.862 L 94.828 75.862 L 91.034 75.862 L 91.034 70.172 L 91.034 64.483 L 92.931 64.483 L 94.828 64.483 L 94.828 66.379 Z M 68.276 70.172 L 68.276 72.069 L 66.379 72.069 L 64.483 72.069 L 64.483 73.966 L 64.483 75.862 L 66.379 75.862 L 68.276 75.862 L 68.276 77.759 L 68.276 79.655 L 72.069 79.655 L 75.862 79.655 L 75.862 81.552 L 75.862 83.448 L 70.172 83.448 L 64.483 83.448 L 64.483 79.655 L 64.483 75.862 L 62.586 75.862 L 60.69 75.862 L 60.69 77.759 L 60.69 79.655 L 58.793 79.655 L 56.897 79.655 L 56.897 81.552 L 56.897 83.448 L 55 83.448 L 53.103 83.448 L 53.103 85.345 L 53.103 87.241 L 51.207 87.241 L 49.31 87.241 L 49.31 89.138 L 49.31 91.034 L 45.517 91.034 L 41.724 91.034 L 41.724 92.931 L 41.724 94.828 L 39.828 94.828 L 37.931 94.828 L 37.931 92.931 L 37.931 91.034 L 39.828 91.034 L 41.724 91.034 L 41.724 89.138 L 41.724 87.241 L 39.828 87.241 L 37.931 87.241 L 37.931 85.345 L 37.931 83.448 L 36.034 83.448 L 34.138 83.448 L 34.138 79.655 L 34.138 75.862 L 37.931 75.862 L 41.724 75.862 L 41.724 81.552 L 41.724 87.241 L 43.621 87.241 L 45.517 87.241 L 45.517 81.552 L 45.517 75.862 L 47.414 75.862 L 49.31 75.862 L 49.31 77.759 L 49.31 79.655 L 53.103 79.655 L 56.897 79.655 L 56.897 75.862 L 56.897 72.069 L 60.69 72.069 L 64.483 72.069 L 64.483 70.172 L 64.483 68.276 L 66.379 68.276 L 68.276 68.276 L 68.276 70.172 Z M 91.034 85.345 L 91.034 91.034 L 85.345 91.034 L 79.655 91.034 L 79.655 85.345 L 79.655 79.655 L 85.345 79.655 L 91.034 79.655 L 91.034 85.345 Z M 7.424 83.609 C 4.001 84.246 1.285 86.733 0.3 90.131 C 0.058 90.967 0.054 91.073 0.054 96.724 C 0.054 102.39 0.058 102.48 0.303 103.326 C 1.164 106.301 3.272 108.524 6.163 109.508 C 7.535 109.974 8.257 110.018 13.818 109.974 C 19.665 109.927 19.591 109.936 21.404 109.086 C 23.736 107.991 25.508 105.885 26.249 103.326 C 26.494 102.48 26.498 102.39 26.498 96.724 C 26.498 91.058 26.494 90.969 26.249 90.123 C 25.999 89.259 25.433 88.025 25.006 87.41 C 23.576 85.353 21.338 83.952 18.857 83.561 C 17.787 83.392 8.376 83.432 7.424 83.609 Z M 83.448 85.345 L 83.448 87.241 L 85.345 87.241 L 87.241 87.241 L 87.241 85.345 L 87.241 83.448 L 85.345 83.448 L 83.448 83.448 L 83.448 85.345 Z M 102.414 85.345 L 102.414 87.241 L 104.31 87.241 L 106.207 87.241 L 106.207 91.034 L 106.207 94.828 L 104.31 94.828 L 102.414 94.828 L 102.414 96.724 L 102.414 98.621 L 104.31 98.621 L 106.207 98.621 L 106.207 100.517 L 106.207 102.414 L 104.31 102.414 L 102.414 102.414 L 102.414 100.517 L 102.414 98.621 L 100.517 98.621 L 98.621 98.621 L 98.621 100.517 L 98.621 102.414 L 96.724 102.414 L 94.828 102.414 L 94.828 104.31 L 94.828 106.207 L 92.931 106.207 L 91.034 106.207 L 91.034 102.414 L 91.034 98.621 L 94.828 98.621 L 98.621 98.621 L 98.621 96.724 L 98.621 94.828 L 96.724 94.828 L 94.828 94.828 L 94.828 92.931 L 94.828 91.034 L 96.724 91.034 L 98.621 91.034 L 98.621 87.241 L 98.621 83.448 L 100.517 83.448 L 102.414 83.448 L 102.414 85.345 Z M 18.799 87.624 C 20.265 88.006 21.423 88.967 22.083 90.349 L 22.488 91.197 L 22.523 96.345 C 22.548 100.007 22.521 101.665 22.43 102.089 C 22.154 103.378 21.135 104.741 19.983 105.363 C 18.869 105.965 18.596 105.99 13.276 105.99 C 7.959 105.99 7.677 105.964 6.579 105.367 C 5.744 104.911 4.951 104.058 4.48 103.104 L 4.064 102.263 L 4.064 96.73 L 4.064 91.197 L 4.42 90.445 C 5.075 89.062 6.038 88.195 7.453 87.712 C 8.171 87.467 8.258 87.464 13.172 87.461 C 17.312 87.459 18.27 87.486 18.799 87.624 Z M 9.722 91.188 C 8.723 91.551 7.947 92.372 7.686 93.342 C 7.617 93.597 7.587 94.998 7.607 96.974 L 7.64 100.192 L 7.962 100.773 C 8.352 101.477 8.861 101.914 9.622 102.199 C 10.144 102.395 10.471 102.414 13.276 102.414 C 16.081 102.414 16.408 102.395 16.929 102.199 C 17.691 101.914 18.2 101.477 18.59 100.773 L 18.911 100.192 L 18.911 96.724 C 18.911 93.357 18.904 93.243 18.673 92.81 C 18.306 92.125 17.953 91.759 17.322 91.409 L 16.744 91.089 L 13.438 91.063 C 10.846 91.043 10.044 91.07 9.722 91.188 Z M 98.621 92.931 L 98.621 94.828 L 100.517 94.828 L 102.414 94.828 L 102.414 92.931 L 102.414 91.034 L 100.517 91.034 L 98.621 91.034 L 98.621 92.931 Z M 49.31 96.724 L 49.31 98.621 L 51.207 98.621 L 53.103 98.621 L 53.103 100.517 L 53.103 102.414 L 51.207 102.414 L 49.31 102.414 L 49.31 100.517 L 49.31 98.621 L 47.414 98.621 L 45.517 98.621 L 45.517 96.724 L 45.517 94.828 L 47.414 94.828 L 49.31 94.828 L 49.31 96.724 Z M 41.724 100.517 L 41.724 102.414 L 39.828 102.414 L 37.931 102.414 L 37.931 100.517 L 37.931 98.621 L 39.828 98.621 L 41.724 98.621 L 41.724 100.517 Z" fill="currentColor" fill-rule="evenodd"/>
</svg>
